<?xml version="1.0" standalone="no"?>
<!DOCTYPE svg PUBLIC "-//W3C//DTD SVG 20010904//EN"
 "http://www.w3.org/TR/2001/REC-SVG-20010904/DTD/svg10.dtd">
<svg version="1.0" xmlns="http://www.w3.org/2000/svg"
 width="1874.000000pt" height="1218.000000pt" viewBox="0 0 1874.000000 1218.000000"
 preserveAspectRatio="xMidYMid meet">

<g transform="translate(0.000000,1218.000000) scale(0.100000,-0.100000)"
fill="#E4C590" stroke="none">
<path d="M9073 10565 c-227 -62 -435 -291 -558 -615 -16 -41 -30 -77 -32 -79
-1 -2 -48 17 -105 42 -151 67 -233 88 -373 94 -140 6 -219 -9 -317 -58 -138
-70 -249 -229 -284 -408 -32 -166 -7 -432 60 -618 l14 -41 -49 -22 c-147 -63
-309 -183 -395 -293 -101 -129 -140 -244 -132 -388 9 -148 64 -263 188 -389
110 -112 299 -228 462 -283 15 -5 12 -17 -23 -104 -209 -511 -98 -958 268
-1085 60 -20 87 -23 218 -23 133 0 161 3 249 28 55 15 141 47 192 71 l91 44
18 -37 c34 -72 115 -197 167 -258 314 -370 743 -326 1028 104 37 56 80 132 96
168 16 36 31 64 34 62 81 -47 254 -111 353 -131 97 -20 272 -20 356 -1 290 69
455 357 411 720 -15 122 -50 263 -92 362 -16 41 -29 75 -27 77 2 2 47 22 100
45 192 84 358 212 448 347 81 120 95 168 95 314 1 114 -2 131 -27 190 -78 183
-228 327 -466 446 l-89 44 33 103 c44 137 65 267 65 408 0 149 -19 241 -72
349 -156 320 -532 392 -956 183 -51 -25 -94 -44 -95 -42 -2 2 -14 31 -27 64
-127 327 -332 549 -561 610 -68 18 -198 18 -266 0z m272 -465 c176 -61 322
-232 429 -502 l14 -37 69 35 c294 148 557 131 717 -46 130 -144 155 -424 63
-712 l-25 -77 65 -31 c279 -130 442 -362 406 -576 -19 -108 -62 -186 -156
-279 -88 -87 -165 -139 -286 -192 -42 -18 -76 -36 -76 -40 0 -5 11 -35 24 -68
96 -248 100 -487 9 -657 -123 -230 -431 -282 -772 -129 -38 18 -70 30 -71 29
-1 -2 -22 -42 -48 -90 -172 -329 -437 -454 -691 -329 -112 55 -234 188 -309
338 l-26 51 -81 -35 c-122 -53 -205 -74 -316 -80 -212 -12 -368 67 -448 227
-48 97 -59 161 -53 309 5 137 26 232 79 359 17 40 29 75 27 76 -2 2 -37 17
-77 34 -122 51 -212 110 -298 196 -167 167 -205 347 -114 533 59 120 218 261
365 324 40 17 53 28 49 39 -57 152 -81 402 -50 533 48 204 180 330 373 357
121 17 286 -16 417 -82 32 -16 64 -27 70 -25 7 3 18 25 25 48 17 55 84 189
124 249 43 63 133 156 187 193 110 76 264 99 385 57z"/>
<path d="M9105 9693 c-119 -43 -219 -147 -297 -308 -26 -55 -48 -105 -48 -112
0 -8 -24 -1 -66 17 -143 65 -293 79 -401 38 -79 -29 -161 -111 -194 -193 -20
-53 -23 -77 -24 -195 0 -111 4 -149 23 -214 12 -43 21 -79 20 -80 -2 -1 -39
-22 -83 -47 -102 -57 -202 -154 -240 -234 -25 -51 -29 -72 -30 -145 0 -73 4
-93 28 -142 15 -31 48 -80 73 -108 54 -59 171 -139 252 -171 31 -12 58 -23 60
-25 2 -1 -8 -28 -22 -60 -56 -134 -78 -295 -57 -406 42 -213 208 -323 439
-290 66 9 161 39 248 78 6 3 31 -30 56 -73 58 -99 145 -185 226 -225 54 -27
75 -32 140 -32 66 0 87 4 143 31 37 17 85 48 109 69 49 45 117 137 154 212
l26 52 38 -19 c105 -53 162 -65 297 -66 122 0 133 2 180 27 204 107 250 372
121 689 -6 13 6 21 50 39 139 57 267 167 321 278 24 49 28 69 28 142 0 74 -4
93 -29 145 -39 79 -131 170 -231 228 -44 26 -86 47 -93 47 -9 0 -12 6 -7 18
38 98 50 173 50 308 l0 140 -38 77 c-100 203 -325 252 -584 127 -57 -27 -83
-35 -83 -25 0 7 -23 59 -51 115 -62 124 -148 221 -241 270 -79 42 -183 51
-263 23z m220 -378 c80 -39 166 -144 210 -259 l17 -45 47 23 c104 53 218 70
305 44 63 -19 140 -100 160 -167 22 -75 20 -191 -4 -282 -11 -41 -20 -77 -20
-80 0 -4 26 -20 57 -35 131 -67 213 -177 213 -289 0 -135 -83 -227 -298 -332
-2 0 9 -39 23 -85 31 -94 38 -215 17 -285 -17 -58 -69 -123 -122 -152 -85 -47
-254 -36 -370 24 -25 13 -26 12 -59 -51 -47 -90 -143 -178 -219 -200 -130 -38
-264 37 -351 196 l-26 47 -74 -29 c-98 -39 -206 -48 -281 -23 -176 59 -224
280 -116 536 5 12 -11 24 -68 53 -95 47 -177 121 -212 192 -23 48 -26 63 -22
124 4 50 12 81 32 113 32 56 111 126 182 162 47 24 54 31 48 49 -38 118 -45
237 -18 325 20 70 88 144 151 165 70 24 165 20 248 -10 101 -37 105 -38 105
-24 0 24 61 140 100 189 41 52 104 100 155 119 43 16 143 9 190 -13z"/>
</g>
</svg>
